<?xml version="1.0" encoding="UTF-8"?>
<svg id="Layer_2" data-name="Layer 2" xmlns="http://www.w3.org/2000/svg" viewBox="0 0 62.02 62.02">
  <defs>
    <style>
      .cls-1 {
        fill: #fcee2d;
      }

      .cls-1, .cls-2 {
        stroke-width: 0px;
      }

      .cls-2 {
        fill: #3d1e1e;
      }
    </style>
  </defs>
  <g id="Layer_3" data-name="Layer 3">
    <path class="cls-1" d="M62.02,31.01c0,17.13-13.88,31.01-31.01,31.01S0,48.13,0,31.01,13.88,0,31.01,0s31.01,13.88,31.01,31.01Z"/>
    <g>
      <polygon class="cls-2" points="26.94 31.06 28.02 31.06 27.48 29.89 26.94 31.06"/>
      <path class="cls-2" d="M31.59,15.85c-9.73,0-17.62,6.23-17.62,13.92,0,4.57,2.79,8.62,7.09,11.16.9.53.11,1.86.11,1.86l-3.54,4.63c-.06.19-.01.39.13.53.1.1.22.15.36.15.11,0,.21-.04.31-.12,0,0,2.17-.43,5.21-1.92,2.48-1.12,4.77-2.6,4.77-2.6,1.04.15,2.09.23,3.17.23,9.73,0,17.62-6.23,17.62-13.91s-7.89-13.92-17.62-13.92ZM22.68,33.76h0s0,.04,0,.06c0,.69-.56,1.24-1.24,1.24s-1.24-.56-1.24-1.24c0-.02,0-.04,0-.06h0v-5.86h-1.66c-.59-.05-1.05-.54-1.05-1.13s.46-1.09,1.05-1.13h0s5.53,0,5.53,0c.63,0,1.13.51,1.13,1.13s-.51,1.13-1.13,1.13h-1.39v5.86ZM44.46,35c-.4,0-.76-.19-.99-.49h0s-2.16-2.92-2.16-2.92l-.46.45v1.75c0,.69-.55,1.24-1.24,1.24-.54,0-.99-.34-1.16-.82-.11.47-.53.82-1.03.82v.02h-4.63v-.03c-.46-.04-.85-.34-1.03-.75-.02.04-.03.09-.05.14-.21.39-.62.65-1.09.65h0c-.06,0-.13,0-.19-.02-.01,0-.02,0-.03,0-.06-.01-.12-.03-.18-.05,0,0-.02,0-.03,0-.06-.02-.11-.05-.17-.08,0,0,0,0,0,0-.06-.03-.11-.07-.16-.11,0,0,0,0,0,0-.05-.04-.1-.09-.14-.13,0,0,0,0,0,0-.13-.15-.23-.33-.28-.53l-.4-.88h-3.08l-.4.88c-.13.54-.62.95-1.2.95-.68,0-1.24-.56-1.24-1.24,0-.16.03-.31.09-.45h0s.03-.08.05-.11l3.01-6.6c.1-.58.61-1.02,1.22-1.02,0,0,.01,0,.02,0s.01,0,.02,0c.61,0,1.12.44,1.22,1.02l2.95,6.48v-6.01h0s0-.1,0-.15c0-.68.56-1.24,1.24-1.24s1.24.56,1.24,1.24c0,.05,0,.1,0,.15h0v5.8h3.27c.42,0,.78.25.95.6v-6.54c0-.68.56-1.24,1.24-1.24s1.24.56,1.24,1.24v1.56l2.38-2.38c.23-.26.56-.42.93-.42.69,0,1.24.56,1.24,1.24,0,.32-.12.61-.32.83h0s-.02.02-.02.02c-.02.02-.04.04-.06.06l-1.93,1.93,2.34,3.17h0c.17.21.28.48.28.78,0,.69-.56,1.24-1.24,1.24Z"/>
      <path class="cls-1" d="M31.86,33.69s0-.06-.01-.09c0,0,0-.02,0-.03,0-.04-.02-.07-.03-.11h0s-.02-.07-.04-.11h0s0,0,0,0h0s-.03-.07-.05-.11l-.06-.13v.28h.06c-.04.12-.06.25-.06.38,0,.17.04.33.1.48.06-.14.1-.29.1-.46,0-.04,0-.08,0-.12Z"/>
      <path class="cls-1" d="M38.37,33.51v.28c0,.15.03.29.08.42.02-.08.03-.16.03-.24,0-.16-.04-.32-.11-.46Z"/>
    </g>
  </g>
</svg>